<mxfile host="Electron" agent="Mozilla/5.0 (X11; Linux x86_64) AppleWebKit/537.36 (KHTML, like Gecko) draw.io/25.0.2 Chrome/128.0.6613.186 Electron/32.2.5 Safari/537.36" version="25.0.2">
  <diagram name="Page-1" id="4ZC-DeqDCuWg1jLO_y1G">
    <mxGraphModel dx="5161" dy="2019" grid="1" gridSize="10" guides="1" tooltips="1" connect="1" arrows="1" fold="1" page="1" pageScale="1" pageWidth="850" pageHeight="1100" math="0" shadow="0">
      <root>
        <mxCell id="0" />
        <mxCell id="1" parent="0" />
        <mxCell id="iz7ZP7XysaxZTH3taRM6-3" value="" style="edgeStyle=orthogonalEdgeStyle;rounded=0;orthogonalLoop=1;jettySize=auto;html=1;" edge="1" parent="1" source="iz7ZP7XysaxZTH3taRM6-1" target="iz7ZP7XysaxZTH3taRM6-2">
          <mxGeometry relative="1" as="geometry" />
        </mxCell>
        <mxCell id="iz7ZP7XysaxZTH3taRM6-1" value="开始" style="whiteSpace=wrap;html=1;" vertex="1" parent="1">
          <mxGeometry x="-800" y="40" width="120" height="60" as="geometry" />
        </mxCell>
        <mxCell id="iz7ZP7XysaxZTH3taRM6-5" value="" style="edgeStyle=orthogonalEdgeStyle;rounded=0;orthogonalLoop=1;jettySize=auto;html=1;" edge="1" parent="1" source="iz7ZP7XysaxZTH3taRM6-2" target="iz7ZP7XysaxZTH3taRM6-4">
          <mxGeometry relative="1" as="geometry" />
        </mxCell>
        <mxCell id="iz7ZP7XysaxZTH3taRM6-11" value="" style="edgeStyle=orthogonalEdgeStyle;rounded=0;orthogonalLoop=1;jettySize=auto;html=1;" edge="1" parent="1" source="iz7ZP7XysaxZTH3taRM6-2" target="iz7ZP7XysaxZTH3taRM6-10">
          <mxGeometry relative="1" as="geometry" />
        </mxCell>
        <mxCell id="iz7ZP7XysaxZTH3taRM6-2" value="classLoader&lt;div&gt;==&lt;/div&gt;&lt;div&gt;null？&lt;/div&gt;" style="rhombus;whiteSpace=wrap;html=1;" vertex="1" parent="1">
          <mxGeometry x="-795" y="170" width="110" height="110" as="geometry" />
        </mxCell>
        <mxCell id="iz7ZP7XysaxZTH3taRM6-4" value="fail to load oat files" style="whiteSpace=wrap;html=1;" vertex="1" parent="1">
          <mxGeometry x="-610" y="195" width="120" height="60" as="geometry" />
        </mxCell>
        <mxCell id="iz7ZP7XysaxZTH3taRM6-13" value="" style="edgeStyle=orthogonalEdgeStyle;rounded=0;orthogonalLoop=1;jettySize=auto;html=1;" edge="1" parent="1" source="iz7ZP7XysaxZTH3taRM6-10" target="iz7ZP7XysaxZTH3taRM6-12">
          <mxGeometry relative="1" as="geometry" />
        </mxCell>
        <mxCell id="iz7ZP7XysaxZTH3taRM6-18" value="" style="edgeStyle=orthogonalEdgeStyle;rounded=0;orthogonalLoop=1;jettySize=auto;html=1;" edge="1" parent="1" source="iz7ZP7XysaxZTH3taRM6-10" target="iz7ZP7XysaxZTH3taRM6-17">
          <mxGeometry relative="1" as="geometry" />
        </mxCell>
        <mxCell id="iz7ZP7XysaxZTH3taRM6-10" value="context&lt;div&gt;==&lt;/div&gt;&lt;div&gt;null？&lt;/div&gt;" style="rhombus;whiteSpace=wrap;html=1;" vertex="1" parent="1">
          <mxGeometry x="-795" y="360" width="110" height="110" as="geometry" />
        </mxCell>
        <mxCell id="iz7ZP7XysaxZTH3taRM6-12" value="fail to load oat files" style="whiteSpace=wrap;html=1;" vertex="1" parent="1">
          <mxGeometry x="-610" y="385" width="120" height="60" as="geometry" />
        </mxCell>
        <mxCell id="iz7ZP7XysaxZTH3taRM6-14" value="true" style="text;html=1;align=center;verticalAlign=middle;resizable=0;points=[];autosize=1;strokeColor=none;fillColor=none;" vertex="1" parent="1">
          <mxGeometry x="-670" y="188" width="40" height="30" as="geometry" />
        </mxCell>
        <mxCell id="iz7ZP7XysaxZTH3taRM6-15" value="true" style="text;html=1;align=center;verticalAlign=middle;resizable=0;points=[];autosize=1;strokeColor=none;fillColor=none;" vertex="1" parent="1">
          <mxGeometry x="-670" y="388" width="40" height="30" as="geometry" />
        </mxCell>
        <mxCell id="iz7ZP7XysaxZTH3taRM6-16" value="false" style="text;html=1;align=center;verticalAlign=middle;resizable=0;points=[];autosize=1;strokeColor=none;fillColor=none;" vertex="1" parent="1">
          <mxGeometry x="-785" y="308" width="50" height="30" as="geometry" />
        </mxCell>
        <mxCell id="iz7ZP7XysaxZTH3taRM6-31" value="" style="edgeStyle=orthogonalEdgeStyle;rounded=0;orthogonalLoop=1;jettySize=auto;html=1;" edge="1" parent="1" source="iz7ZP7XysaxZTH3taRM6-17" target="iz7ZP7XysaxZTH3taRM6-30">
          <mxGeometry relative="1" as="geometry" />
        </mxCell>
        <mxCell id="iz7ZP7XysaxZTH3taRM6-17" value="get oat file" style="whiteSpace=wrap;html=1;" vertex="1" parent="1">
          <mxGeometry x="-800" y="575" width="120" height="60" as="geometry" />
        </mxCell>
        <mxCell id="iz7ZP7XysaxZTH3taRM6-19" value="false" style="text;html=1;align=center;verticalAlign=middle;resizable=0;points=[];autosize=1;strokeColor=none;fillColor=none;" vertex="1" parent="1">
          <mxGeometry x="-785" y="478" width="50" height="30" as="geometry" />
        </mxCell>
        <mxCell id="iz7ZP7XysaxZTH3taRM6-20" value="" style="whiteSpace=wrap;html=1;" vertex="1" parent="1">
          <mxGeometry x="430" y="570" width="20" height="1430" as="geometry" />
        </mxCell>
        <mxCell id="iz7ZP7XysaxZTH3taRM6-21" value="" style="edgeStyle=none;orthogonalLoop=1;jettySize=auto;html=1;rounded=0;entryX=0;entryY=0.077;entryDx=0;entryDy=0;entryPerimeter=0;" edge="1" parent="1" target="iz7ZP7XysaxZTH3taRM6-20">
          <mxGeometry width="100" relative="1" as="geometry">
            <mxPoint x="160" y="680" as="sourcePoint" />
            <mxPoint x="260" y="680" as="targetPoint" />
            <Array as="points" />
          </mxGeometry>
        </mxCell>
        <mxCell id="iz7ZP7XysaxZTH3taRM6-22" value="&lt;span style=&quot;color: rgb(51, 51, 51); font-family: &amp;quot;Open Sans&amp;quot;, &amp;quot;Clear Sans&amp;quot;, &amp;quot;Helvetica Neue&amp;quot;, Helvetica, Arial, &amp;quot;Segoe UI Emoji&amp;quot;, sans-serif; font-size: 16px; orphans: 4; text-align: start; white-space: pre-wrap; background-color: rgb(255, 255, 255);&quot;&gt;DexFile_openDexFileNative&lt;/span&gt;" style="text;html=1;align=center;verticalAlign=middle;resizable=0;points=[];autosize=1;strokeColor=none;fillColor=none;" vertex="1" parent="1">
          <mxGeometry x="160" y="630" width="220" height="30" as="geometry" />
        </mxCell>
        <mxCell id="iz7ZP7XysaxZTH3taRM6-23" value="" style="whiteSpace=wrap;html=1;" vertex="1" parent="1">
          <mxGeometry x="630" y="560" width="20" height="1430" as="geometry" />
        </mxCell>
        <mxCell id="iz7ZP7XysaxZTH3taRM6-24" value="" style="edgeStyle=none;orthogonalLoop=1;jettySize=auto;html=1;rounded=0;entryX=0;entryY=0.084;entryDx=0;entryDy=0;entryPerimeter=0;" edge="1" parent="1" target="iz7ZP7XysaxZTH3taRM6-23">
          <mxGeometry width="100" relative="1" as="geometry">
            <mxPoint x="450" y="680" as="sourcePoint" />
            <mxPoint x="550" y="680" as="targetPoint" />
            <Array as="points" />
          </mxGeometry>
        </mxCell>
        <mxCell id="iz7ZP7XysaxZTH3taRM6-25" value="&lt;div style=&quot;color: rgb(204, 204, 204); background-color: rgb(31, 31, 31); font-family: &amp;quot;Droid Sans Mono&amp;quot;, &amp;quot;monospace&amp;quot;, monospace; font-size: 14px; line-height: 19px; white-space-collapse: preserve;&quot;&gt;&lt;br&gt;&lt;/div&gt;" style="text;html=1;align=center;verticalAlign=middle;resizable=0;points=[];autosize=1;strokeColor=none;fillColor=none;" vertex="1" parent="1">
          <mxGeometry x="520" y="628" width="20" height="30" as="geometry" />
        </mxCell>
        <mxCell id="iz7ZP7XysaxZTH3taRM6-26" value="&lt;span style=&quot;color: rgb(51, 51, 51); font-family: &amp;quot;Open Sans&amp;quot;, &amp;quot;Clear Sans&amp;quot;, &amp;quot;Helvetica Neue&amp;quot;, Helvetica, Arial, &amp;quot;Segoe UI Emoji&amp;quot;, sans-serif; font-size: 16px; orphans: 4; text-align: start; white-space: pre-wrap; background-color: rgb(255, 255, 255);&quot;&gt;OatFileManager&lt;/span&gt;" style="text;html=1;align=center;verticalAlign=middle;resizable=0;points=[];autosize=1;strokeColor=none;fillColor=none;" vertex="1" parent="1">
          <mxGeometry x="560" y="500" width="140" height="30" as="geometry" />
        </mxCell>
        <mxCell id="iz7ZP7XysaxZTH3taRM6-27" value="art::" style="text;html=1;align=center;verticalAlign=middle;resizable=0;points=[];autosize=1;strokeColor=none;fillColor=none;" vertex="1" parent="1">
          <mxGeometry x="425" y="500" width="40" height="30" as="geometry" />
        </mxCell>
        <mxCell id="iz7ZP7XysaxZTH3taRM6-34" value="" style="edgeStyle=orthogonalEdgeStyle;rounded=0;orthogonalLoop=1;jettySize=auto;html=1;" edge="1" parent="1" source="iz7ZP7XysaxZTH3taRM6-30" target="iz7ZP7XysaxZTH3taRM6-33">
          <mxGeometry relative="1" as="geometry" />
        </mxCell>
        <mxCell id="iz7ZP7XysaxZTH3taRM6-30" value="oat_file&lt;div&gt;==&lt;/div&gt;&lt;div&gt;null？&lt;/div&gt;" style="rhombus;whiteSpace=wrap;html=1;" vertex="1" parent="1">
          <mxGeometry x="-795" y="740" width="110" height="110" as="geometry" />
        </mxCell>
        <mxCell id="iz7ZP7XysaxZTH3taRM6-33" value="Verify dex dumplicated?" style="whiteSpace=wrap;html=1;" vertex="1" parent="1">
          <mxGeometry x="-610" y="765" width="120" height="60" as="geometry" />
        </mxCell>
        <mxCell id="iz7ZP7XysaxZTH3taRM6-35" value="true" style="text;html=1;align=center;verticalAlign=middle;resizable=0;points=[];autosize=1;strokeColor=none;fillColor=none;" vertex="1" parent="1">
          <mxGeometry x="-685" y="765" width="40" height="30" as="geometry" />
        </mxCell>
        <mxCell id="iz7ZP7XysaxZTH3taRM6-36" value="" style="whiteSpace=wrap;html=1;" vertex="1" parent="1">
          <mxGeometry x="810" y="560" width="20" height="1430" as="geometry" />
        </mxCell>
        <mxCell id="iz7ZP7XysaxZTH3taRM6-38" value="" style="edgeStyle=none;orthogonalLoop=1;jettySize=auto;html=1;rounded=0;entryX=-0.1;entryY=0.085;entryDx=0;entryDy=0;entryPerimeter=0;" edge="1" parent="1" target="iz7ZP7XysaxZTH3taRM6-36">
          <mxGeometry width="100" relative="1" as="geometry">
            <mxPoint x="650" y="680" as="sourcePoint" />
            <mxPoint x="750" y="680" as="targetPoint" />
            <Array as="points" />
          </mxGeometry>
        </mxCell>
        <mxCell id="iz7ZP7XysaxZTH3taRM6-39" value="OpenDexFilesFromOat" style="text;html=1;align=center;verticalAlign=middle;resizable=0;points=[];autosize=1;strokeColor=none;fillColor=none;" vertex="1" parent="1">
          <mxGeometry x="465" y="635" width="150" height="30" as="geometry" />
        </mxCell>
        <mxCell id="iz7ZP7XysaxZTH3taRM6-40" value="GetOptimizationStatus" style="text;html=1;align=center;verticalAlign=middle;resizable=0;points=[];autosize=1;strokeColor=none;fillColor=none;" vertex="1" parent="1">
          <mxGeometry x="660" y="635" width="140" height="30" as="geometry" />
        </mxCell>
        <mxCell id="iz7ZP7XysaxZTH3taRM6-41" value="OatFileAssistant" style="text;html=1;align=center;verticalAlign=middle;resizable=0;points=[];autosize=1;strokeColor=none;fillColor=none;" vertex="1" parent="1">
          <mxGeometry x="760" y="500" width="110" height="30" as="geometry" />
        </mxCell>
        <mxCell id="iz7ZP7XysaxZTH3taRM6-43" value="" style="edgeStyle=none;orthogonalLoop=1;jettySize=auto;html=1;rounded=0;entryX=1.074;entryY=0.105;entryDx=0;entryDy=0;entryPerimeter=0;" edge="1" parent="1" target="iz7ZP7XysaxZTH3taRM6-36">
          <mxGeometry width="100" relative="1" as="geometry">
            <mxPoint x="830" y="680" as="sourcePoint" />
            <mxPoint x="840" y="720" as="targetPoint" />
            <Array as="points">
              <mxPoint x="1010" y="680" />
              <mxPoint x="1010" y="710" />
            </Array>
          </mxGeometry>
        </mxCell>
        <mxCell id="iz7ZP7XysaxZTH3taRM6-44" value="Text" style="text;html=1;align=center;verticalAlign=middle;resizable=0;points=[];autosize=1;strokeColor=none;fillColor=none;" vertex="1" parent="1">
          <mxGeometry x="850" y="650" width="50" height="30" as="geometry" />
        </mxCell>
        <mxCell id="iz7ZP7XysaxZTH3taRM6-49" value="" style="edgeStyle=orthogonalEdgeStyle;rounded=0;orthogonalLoop=1;jettySize=auto;html=1;" edge="1" parent="1" source="iz7ZP7XysaxZTH3taRM6-47" target="iz7ZP7XysaxZTH3taRM6-48">
          <mxGeometry relative="1" as="geometry" />
        </mxCell>
        <mxCell id="iz7ZP7XysaxZTH3taRM6-47" value="开始" style="whiteSpace=wrap;html=1;" vertex="1" parent="1">
          <mxGeometry x="-840" y="1440" width="120" height="60" as="geometry" />
        </mxCell>
        <mxCell id="iz7ZP7XysaxZTH3taRM6-51" value="" style="edgeStyle=orthogonalEdgeStyle;rounded=0;orthogonalLoop=1;jettySize=auto;html=1;" edge="1" parent="1" source="iz7ZP7XysaxZTH3taRM6-48">
          <mxGeometry relative="1" as="geometry">
            <mxPoint x="-500" y="1650" as="targetPoint" />
          </mxGeometry>
        </mxCell>
        <mxCell id="iz7ZP7XysaxZTH3taRM6-74" value="" style="edgeStyle=orthogonalEdgeStyle;rounded=0;orthogonalLoop=1;jettySize=auto;html=1;" edge="1" parent="1" source="iz7ZP7XysaxZTH3taRM6-48" target="iz7ZP7XysaxZTH3taRM6-73">
          <mxGeometry relative="1" as="geometry" />
        </mxCell>
        <mxCell id="iz7ZP7XysaxZTH3taRM6-48" value="parrent&lt;div&gt;writeable?&lt;/div&gt;" style="rhombus;whiteSpace=wrap;html=1;" vertex="1" parent="1">
          <mxGeometry x="-835" y="1595" width="110" height="110" as="geometry" />
        </mxCell>
        <mxCell id="iz7ZP7XysaxZTH3taRM6-55" value="" style="edgeStyle=orthogonalEdgeStyle;rounded=0;orthogonalLoop=1;jettySize=auto;html=1;" edge="1" parent="1" target="iz7ZP7XysaxZTH3taRM6-53">
          <mxGeometry relative="1" as="geometry">
            <mxPoint x="-500" y="1650" as="sourcePoint" />
          </mxGeometry>
        </mxCell>
        <mxCell id="iz7ZP7XysaxZTH3taRM6-52" value="true" style="text;html=1;align=center;verticalAlign=middle;resizable=0;points=[];autosize=1;strokeColor=none;fillColor=none;" vertex="1" parent="1">
          <mxGeometry x="-670" y="1620" width="40" height="30" as="geometry" />
        </mxCell>
        <mxCell id="iz7ZP7XysaxZTH3taRM6-57" value="" style="edgeStyle=orthogonalEdgeStyle;rounded=0;orthogonalLoop=1;jettySize=auto;html=1;" edge="1" parent="1" source="iz7ZP7XysaxZTH3taRM6-53" target="iz7ZP7XysaxZTH3taRM6-56">
          <mxGeometry relative="1" as="geometry" />
        </mxCell>
        <mxCell id="iz7ZP7XysaxZTH3taRM6-61" value="" style="edgeStyle=orthogonalEdgeStyle;rounded=0;orthogonalLoop=1;jettySize=auto;html=1;" edge="1" parent="1" source="iz7ZP7XysaxZTH3taRM6-53" target="iz7ZP7XysaxZTH3taRM6-60">
          <mxGeometry relative="1" as="geometry" />
        </mxCell>
        <mxCell id="iz7ZP7XysaxZTH3taRM6-53" value="odex" style="rhombus;whiteSpace=wrap;html=1;" vertex="1" parent="1">
          <mxGeometry x="-555" y="1740" width="110" height="110" as="geometry" />
        </mxCell>
        <mxCell id="iz7ZP7XysaxZTH3taRM6-59" value="" style="edgeStyle=orthogonalEdgeStyle;rounded=0;orthogonalLoop=1;jettySize=auto;html=1;" edge="1" parent="1" source="iz7ZP7XysaxZTH3taRM6-56" target="iz7ZP7XysaxZTH3taRM6-58">
          <mxGeometry relative="1" as="geometry" />
        </mxCell>
        <mxCell id="iz7ZP7XysaxZTH3taRM6-65" value="" style="edgeStyle=orthogonalEdgeStyle;rounded=0;orthogonalLoop=1;jettySize=auto;html=1;" edge="1" parent="1" source="iz7ZP7XysaxZTH3taRM6-56" target="iz7ZP7XysaxZTH3taRM6-64">
          <mxGeometry relative="1" as="geometry" />
        </mxCell>
        <mxCell id="iz7ZP7XysaxZTH3taRM6-56" value="vdex for odex" style="rhombus;whiteSpace=wrap;html=1;" vertex="1" parent="1">
          <mxGeometry x="-555" y="1930" width="110" height="110" as="geometry" />
        </mxCell>
        <mxCell id="iz7ZP7XysaxZTH3taRM6-67" value="" style="edgeStyle=orthogonalEdgeStyle;rounded=0;orthogonalLoop=1;jettySize=auto;html=1;" edge="1" parent="1" source="iz7ZP7XysaxZTH3taRM6-58" target="iz7ZP7XysaxZTH3taRM6-66">
          <mxGeometry relative="1" as="geometry" />
        </mxCell>
        <mxCell id="iz7ZP7XysaxZTH3taRM6-72" value="" style="edgeStyle=orthogonalEdgeStyle;rounded=0;orthogonalLoop=1;jettySize=auto;html=1;" edge="1" parent="1" source="iz7ZP7XysaxZTH3taRM6-58" target="iz7ZP7XysaxZTH3taRM6-71">
          <mxGeometry relative="1" as="geometry" />
        </mxCell>
        <mxCell id="iz7ZP7XysaxZTH3taRM6-58" value="dm for dex" style="rhombus;whiteSpace=wrap;html=1;" vertex="1" parent="1">
          <mxGeometry x="-555" y="2120" width="110" height="110" as="geometry" />
        </mxCell>
        <mxCell id="iz7ZP7XysaxZTH3taRM6-60" value="return odx" style="whiteSpace=wrap;html=1;" vertex="1" parent="1">
          <mxGeometry x="-370" y="1765" width="120" height="60" as="geometry" />
        </mxCell>
        <mxCell id="iz7ZP7XysaxZTH3taRM6-64" value="return vdex" style="whiteSpace=wrap;html=1;" vertex="1" parent="1">
          <mxGeometry x="-370" y="1955" width="120" height="60" as="geometry" />
        </mxCell>
        <mxCell id="iz7ZP7XysaxZTH3taRM6-66" value="return dm" style="whiteSpace=wrap;html=1;" vertex="1" parent="1">
          <mxGeometry x="-370" y="2145" width="120" height="60" as="geometry" />
        </mxCell>
        <mxCell id="iz7ZP7XysaxZTH3taRM6-68" value="yes" style="text;html=1;align=center;verticalAlign=middle;resizable=0;points=[];autosize=1;strokeColor=none;fillColor=none;" vertex="1" parent="1">
          <mxGeometry x="-430" y="1768" width="40" height="30" as="geometry" />
        </mxCell>
        <mxCell id="iz7ZP7XysaxZTH3taRM6-69" value="yes" style="text;html=1;align=center;verticalAlign=middle;resizable=0;points=[];autosize=1;strokeColor=none;fillColor=none;" vertex="1" parent="1">
          <mxGeometry x="-430" y="1958" width="40" height="30" as="geometry" />
        </mxCell>
        <mxCell id="iz7ZP7XysaxZTH3taRM6-70" value="yes" style="text;html=1;align=center;verticalAlign=middle;resizable=0;points=[];autosize=1;strokeColor=none;fillColor=none;" vertex="1" parent="1">
          <mxGeometry x="-430" y="2145" width="40" height="30" as="geometry" />
        </mxCell>
        <mxCell id="iz7ZP7XysaxZTH3taRM6-71" value="return odex" style="whiteSpace=wrap;html=1;" vertex="1" parent="1">
          <mxGeometry x="-560" y="2335" width="120" height="60" as="geometry" />
        </mxCell>
        <mxCell id="iz7ZP7XysaxZTH3taRM6-78" value="" style="edgeStyle=orthogonalEdgeStyle;rounded=0;orthogonalLoop=1;jettySize=auto;html=1;" edge="1" parent="1" source="iz7ZP7XysaxZTH3taRM6-73" target="iz7ZP7XysaxZTH3taRM6-77">
          <mxGeometry relative="1" as="geometry" />
        </mxCell>
        <mxCell id="iz7ZP7XysaxZTH3taRM6-82" value="" style="edgeStyle=orthogonalEdgeStyle;rounded=0;orthogonalLoop=1;jettySize=auto;html=1;" edge="1" parent="1" source="iz7ZP7XysaxZTH3taRM6-73" target="iz7ZP7XysaxZTH3taRM6-81">
          <mxGeometry relative="1" as="geometry" />
        </mxCell>
        <mxCell id="iz7ZP7XysaxZTH3taRM6-73" value="oat" style="rhombus;whiteSpace=wrap;html=1;" vertex="1" parent="1">
          <mxGeometry x="-835" y="1740" width="110" height="110" as="geometry" />
        </mxCell>
        <mxCell id="iz7ZP7XysaxZTH3taRM6-77" value="return oat" style="whiteSpace=wrap;html=1;" vertex="1" parent="1">
          <mxGeometry x="-1030" y="1765" width="120" height="60" as="geometry" />
        </mxCell>
        <mxCell id="iz7ZP7XysaxZTH3taRM6-84" value="" style="edgeStyle=orthogonalEdgeStyle;rounded=0;orthogonalLoop=1;jettySize=auto;html=1;" edge="1" parent="1" source="iz7ZP7XysaxZTH3taRM6-81" target="iz7ZP7XysaxZTH3taRM6-83">
          <mxGeometry relative="1" as="geometry" />
        </mxCell>
        <mxCell id="iz7ZP7XysaxZTH3taRM6-86" value="" style="edgeStyle=orthogonalEdgeStyle;rounded=0;orthogonalLoop=1;jettySize=auto;html=1;" edge="1" parent="1" source="iz7ZP7XysaxZTH3taRM6-81" target="iz7ZP7XysaxZTH3taRM6-85">
          <mxGeometry relative="1" as="geometry" />
        </mxCell>
        <mxCell id="iz7ZP7XysaxZTH3taRM6-81" value="odex" style="rhombus;whiteSpace=wrap;html=1;" vertex="1" parent="1">
          <mxGeometry x="-835" y="1930" width="110" height="110" as="geometry" />
        </mxCell>
        <mxCell id="iz7ZP7XysaxZTH3taRM6-83" value="return odex" style="whiteSpace=wrap;html=1;" vertex="1" parent="1">
          <mxGeometry x="-1030" y="1955" width="120" height="60" as="geometry" />
        </mxCell>
        <mxCell id="iz7ZP7XysaxZTH3taRM6-88" value="" style="edgeStyle=orthogonalEdgeStyle;rounded=0;orthogonalLoop=1;jettySize=auto;html=1;" edge="1" parent="1" source="iz7ZP7XysaxZTH3taRM6-85" target="iz7ZP7XysaxZTH3taRM6-87">
          <mxGeometry relative="1" as="geometry" />
        </mxCell>
        <mxCell id="iz7ZP7XysaxZTH3taRM6-100" value="" style="edgeStyle=orthogonalEdgeStyle;rounded=0;orthogonalLoop=1;jettySize=auto;html=1;" edge="1" parent="1" source="iz7ZP7XysaxZTH3taRM6-85" target="iz7ZP7XysaxZTH3taRM6-99">
          <mxGeometry relative="1" as="geometry" />
        </mxCell>
        <mxCell id="iz7ZP7XysaxZTH3taRM6-85" value="vdex for oat" style="rhombus;whiteSpace=wrap;html=1;" vertex="1" parent="1">
          <mxGeometry x="-835" y="2120" width="110" height="110" as="geometry" />
        </mxCell>
        <mxCell id="iz7ZP7XysaxZTH3taRM6-90" value="" style="edgeStyle=orthogonalEdgeStyle;rounded=0;orthogonalLoop=1;jettySize=auto;html=1;" edge="1" parent="1" source="iz7ZP7XysaxZTH3taRM6-87" target="iz7ZP7XysaxZTH3taRM6-89">
          <mxGeometry relative="1" as="geometry" />
        </mxCell>
        <mxCell id="iz7ZP7XysaxZTH3taRM6-102" value="" style="edgeStyle=orthogonalEdgeStyle;rounded=0;orthogonalLoop=1;jettySize=auto;html=1;" edge="1" parent="1" source="iz7ZP7XysaxZTH3taRM6-87" target="iz7ZP7XysaxZTH3taRM6-101">
          <mxGeometry relative="1" as="geometry" />
        </mxCell>
        <mxCell id="iz7ZP7XysaxZTH3taRM6-87" value="vdex for odex" style="rhombus;whiteSpace=wrap;html=1;" vertex="1" parent="1">
          <mxGeometry x="-835" y="2310" width="110" height="110" as="geometry" />
        </mxCell>
        <mxCell id="iz7ZP7XysaxZTH3taRM6-92" value="" style="edgeStyle=orthogonalEdgeStyle;rounded=0;orthogonalLoop=1;jettySize=auto;html=1;" edge="1" parent="1" source="iz7ZP7XysaxZTH3taRM6-89" target="iz7ZP7XysaxZTH3taRM6-91">
          <mxGeometry relative="1" as="geometry" />
        </mxCell>
        <mxCell id="iz7ZP7XysaxZTH3taRM6-104" value="" style="edgeStyle=orthogonalEdgeStyle;rounded=0;orthogonalLoop=1;jettySize=auto;html=1;" edge="1" parent="1" source="iz7ZP7XysaxZTH3taRM6-89" target="iz7ZP7XysaxZTH3taRM6-103">
          <mxGeometry relative="1" as="geometry" />
        </mxCell>
        <mxCell id="iz7ZP7XysaxZTH3taRM6-89" value="dm for oat" style="rhombus;whiteSpace=wrap;html=1;" vertex="1" parent="1">
          <mxGeometry x="-835" y="2500" width="110" height="110" as="geometry" />
        </mxCell>
        <mxCell id="iz7ZP7XysaxZTH3taRM6-94" value="" style="edgeStyle=orthogonalEdgeStyle;rounded=0;orthogonalLoop=1;jettySize=auto;html=1;" edge="1" parent="1" source="iz7ZP7XysaxZTH3taRM6-91" target="iz7ZP7XysaxZTH3taRM6-93">
          <mxGeometry relative="1" as="geometry" />
        </mxCell>
        <mxCell id="iz7ZP7XysaxZTH3taRM6-106" value="" style="edgeStyle=orthogonalEdgeStyle;rounded=0;orthogonalLoop=1;jettySize=auto;html=1;" edge="1" parent="1" source="iz7ZP7XysaxZTH3taRM6-91" target="iz7ZP7XysaxZTH3taRM6-105">
          <mxGeometry relative="1" as="geometry" />
        </mxCell>
        <mxCell id="iz7ZP7XysaxZTH3taRM6-91" value="dm for odex" style="rhombus;whiteSpace=wrap;html=1;" vertex="1" parent="1">
          <mxGeometry x="-835" y="2690" width="110" height="110" as="geometry" />
        </mxCell>
        <mxCell id="iz7ZP7XysaxZTH3taRM6-96" value="" style="edgeStyle=orthogonalEdgeStyle;rounded=0;orthogonalLoop=1;jettySize=auto;html=1;" edge="1" parent="1" source="iz7ZP7XysaxZTH3taRM6-93" target="iz7ZP7XysaxZTH3taRM6-95">
          <mxGeometry relative="1" as="geometry" />
        </mxCell>
        <mxCell id="iz7ZP7XysaxZTH3taRM6-98" value="" style="edgeStyle=orthogonalEdgeStyle;rounded=0;orthogonalLoop=1;jettySize=auto;html=1;" edge="1" parent="1" source="iz7ZP7XysaxZTH3taRM6-93" target="iz7ZP7XysaxZTH3taRM6-97">
          <mxGeometry relative="1" as="geometry" />
        </mxCell>
        <mxCell id="iz7ZP7XysaxZTH3taRM6-93" value="oat can open ?" style="rhombus;whiteSpace=wrap;html=1;" vertex="1" parent="1">
          <mxGeometry x="-835" y="2880" width="110" height="110" as="geometry" />
        </mxCell>
        <mxCell id="iz7ZP7XysaxZTH3taRM6-95" value="return oat" style="whiteSpace=wrap;html=1;" vertex="1" parent="1">
          <mxGeometry x="-1030" y="2905" width="120" height="60" as="geometry" />
        </mxCell>
        <mxCell id="iz7ZP7XysaxZTH3taRM6-97" value="return odex" style="whiteSpace=wrap;html=1;" vertex="1" parent="1">
          <mxGeometry x="-840" y="3095" width="120" height="60" as="geometry" />
        </mxCell>
        <mxCell id="iz7ZP7XysaxZTH3taRM6-99" value="return vdex for odex" style="whiteSpace=wrap;html=1;" vertex="1" parent="1">
          <mxGeometry x="-1030" y="2145" width="120" height="60" as="geometry" />
        </mxCell>
        <mxCell id="iz7ZP7XysaxZTH3taRM6-101" value="return vdex for odex" style="whiteSpace=wrap;html=1;" vertex="1" parent="1">
          <mxGeometry x="-1030" y="2335" width="120" height="60" as="geometry" />
        </mxCell>
        <mxCell id="iz7ZP7XysaxZTH3taRM6-103" value="return dm for oat" style="whiteSpace=wrap;html=1;" vertex="1" parent="1">
          <mxGeometry x="-1030" y="2525" width="120" height="60" as="geometry" />
        </mxCell>
        <mxCell id="iz7ZP7XysaxZTH3taRM6-105" value="return dm for odex" style="whiteSpace=wrap;html=1;" vertex="1" parent="1">
          <mxGeometry x="-1030" y="2715" width="120" height="60" as="geometry" />
        </mxCell>
        <mxCell id="iz7ZP7XysaxZTH3taRM6-107" value="usable" style="text;html=1;align=center;verticalAlign=middle;resizable=0;points=[];autosize=1;strokeColor=none;fillColor=none;" vertex="1" parent="1">
          <mxGeometry x="-900" y="1768" width="60" height="30" as="geometry" />
        </mxCell>
        <mxCell id="iz7ZP7XysaxZTH3taRM6-108" value="usable" style="text;html=1;align=center;verticalAlign=middle;resizable=0;points=[];autosize=1;strokeColor=none;fillColor=none;" vertex="1" parent="1">
          <mxGeometry x="-895" y="1958" width="60" height="30" as="geometry" />
        </mxCell>
        <mxCell id="iz7ZP7XysaxZTH3taRM6-109" value="not usable" style="text;html=1;align=center;verticalAlign=middle;resizable=0;points=[];autosize=1;strokeColor=none;fillColor=none;" vertex="1" parent="1">
          <mxGeometry x="-860" y="1850" width="80" height="30" as="geometry" />
        </mxCell>
        <mxCell id="iz7ZP7XysaxZTH3taRM6-110" value="usable" style="text;html=1;align=center;verticalAlign=middle;resizable=0;points=[];autosize=1;strokeColor=none;fillColor=none;" vertex="1" parent="1">
          <mxGeometry x="-900" y="2145" width="60" height="30" as="geometry" />
        </mxCell>
        <mxCell id="iz7ZP7XysaxZTH3taRM6-112" value="not usable" style="text;html=1;align=center;verticalAlign=middle;resizable=0;points=[];autosize=1;strokeColor=none;fillColor=none;" vertex="1" parent="1">
          <mxGeometry x="-860" y="2060" width="80" height="30" as="geometry" />
        </mxCell>
        <mxCell id="iz7ZP7XysaxZTH3taRM6-113" value="not usable" style="text;html=1;align=center;verticalAlign=middle;resizable=0;points=[];autosize=1;strokeColor=none;fillColor=none;" vertex="1" parent="1">
          <mxGeometry x="-860" y="2250" width="80" height="30" as="geometry" />
        </mxCell>
        <mxCell id="iz7ZP7XysaxZTH3taRM6-114" value="not usable" style="text;html=1;align=center;verticalAlign=middle;resizable=0;points=[];autosize=1;strokeColor=none;fillColor=none;" vertex="1" parent="1">
          <mxGeometry x="-860" y="2440" width="80" height="30" as="geometry" />
        </mxCell>
        <mxCell id="iz7ZP7XysaxZTH3taRM6-115" value="not usable" style="text;html=1;align=center;verticalAlign=middle;resizable=0;points=[];autosize=1;strokeColor=none;fillColor=none;" vertex="1" parent="1">
          <mxGeometry x="-860" y="2630" width="80" height="30" as="geometry" />
        </mxCell>
        <mxCell id="iz7ZP7XysaxZTH3taRM6-116" value="not usable" style="text;html=1;align=center;verticalAlign=middle;resizable=0;points=[];autosize=1;strokeColor=none;fillColor=none;" vertex="1" parent="1">
          <mxGeometry x="-860" y="2820" width="80" height="30" as="geometry" />
        </mxCell>
        <mxCell id="iz7ZP7XysaxZTH3taRM6-118" value="yes" style="text;html=1;align=center;verticalAlign=middle;resizable=0;points=[];autosize=1;strokeColor=none;fillColor=none;" vertex="1" parent="1">
          <mxGeometry x="-890" y="2898" width="40" height="30" as="geometry" />
        </mxCell>
        <mxCell id="iz7ZP7XysaxZTH3taRM6-119" value="no" style="text;html=1;align=center;verticalAlign=middle;resizable=0;points=[];autosize=1;strokeColor=none;fillColor=none;" vertex="1" parent="1">
          <mxGeometry x="-820" y="3018" width="40" height="30" as="geometry" />
        </mxCell>
        <mxCell id="iz7ZP7XysaxZTH3taRM6-120" value="usable" style="text;html=1;align=center;verticalAlign=middle;resizable=0;points=[];autosize=1;strokeColor=none;fillColor=none;" vertex="1" parent="1">
          <mxGeometry x="-895" y="2335" width="60" height="30" as="geometry" />
        </mxCell>
        <mxCell id="iz7ZP7XysaxZTH3taRM6-121" value="usable" style="text;html=1;align=center;verticalAlign=middle;resizable=0;points=[];autosize=1;strokeColor=none;fillColor=none;" vertex="1" parent="1">
          <mxGeometry x="-900" y="2525" width="60" height="30" as="geometry" />
        </mxCell>
        <mxCell id="iz7ZP7XysaxZTH3taRM6-122" value="usable" style="text;html=1;align=center;verticalAlign=middle;resizable=0;points=[];autosize=1;strokeColor=none;fillColor=none;" vertex="1" parent="1">
          <mxGeometry x="-900" y="2715" width="60" height="30" as="geometry" />
        </mxCell>
        <mxCell id="iz7ZP7XysaxZTH3taRM6-124" value="false" style="text;html=1;align=center;verticalAlign=middle;resizable=0;points=[];autosize=1;strokeColor=none;fillColor=none;" vertex="1" parent="1">
          <mxGeometry x="-830" y="1698" width="50" height="30" as="geometry" />
        </mxCell>
      </root>
    </mxGraphModel>
  </diagram>
</mxfile>
